<?xml version="1.0" standalone="no"?>
<!DOCTYPE svg PUBLIC "-//W3C//DTD SVG 20010904//EN"
 "http://www.w3.org/TR/2001/REC-SVG-20010904/DTD/svg10.dtd">
<svg version="1.0" xmlns="http://www.w3.org/2000/svg"
 width="128.000000pt" height="128.000000pt" viewBox="0 0 128.000000 128.000000"
 preserveAspectRatio="xMidYMid meet">

<g transform="translate(0.000000,128.000000) scale(0.100000,-0.100000)"
fill="#000000" stroke="none">
<path d="M490 1182 c0 -97 0 -99 -27 -111 -25 -12 -30 -9 -97 58 l-71 71 -108
-108 -107 -107 71 -71 c67 -67 70 -72 58 -97 -12 -27 -14 -27 -111 -27 l-98 0
0 -150 0 -150 98 0 c97 0 99 0 111 -27 12 -25 9 -30 -58 -97 l-71 -71 107
-107 108 -108 71 71 c67 67 72 70 97 58 27 -12 27 -14 27 -111 l0 -98 150 0
150 0 0 98 c0 97 0 99 27 111 25 12 30 9 97 -58 l71 -71 107 107 108 108 -71
71 c-67 67 -70 72 -58 97 12 27 14 27 111 27 l98 0 0 150 0 150 -98 0 c-97 0
-99 0 -111 27 -12 25 -9 30 58 97 l71 71 -108 108 -107 107 -71 -71 c-67 -67
-72 -70 -97 -58 -27 12 -27 14 -27 111 l0 98 -150 0 -150 0 0 -98z m262 -34
l3 -92 48 -19 48 -20 62 61 c35 34 67 62 73 62 12 0 154 -142 154 -155 0 -5
-28 -37 -62 -72 l-61 -62 20 -48 19 -48 92 -3 92 -3 0 -109 0 -109 -92 -3 -92
-3 -19 -48 -20 -48 61 -62 c34 -35 62 -67 62 -73 0 -5 -33 -43 -74 -83 l-74
-74 -69 62 c-37 33 -71 61 -75 61 -3 0 -27 -9 -52 -20 l-46 -19 0 -91 0 -90
-110 0 -109 0 -3 92 -3 92 -48 19 -47 20 -64 -62 c-36 -33 -68 -61 -73 -61 -5
0 -42 34 -83 75 l-74 75 62 63 c34 34 62 68 62 74 0 6 -9 32 -20 57 l-19 46
-91 0 -90 0 0 110 0 110 90 0 91 0 19 46 c11 25 20 51 20 57 0 6 -28 40 -62
74 l-62 63 74 75 c41 41 78 75 83 75 5 0 37 -28 73 -61 l64 -62 47 20 48 19 3
92 3 92 109 0 109 0 3 -92z"/>
<path d="M343 824 c-155 -77 -154 -294 1 -368 45 -21 122 -20 171 3 48 22 112
86 96 95 -6 4 -11 11 -11 17 0 22 29 5 80 -46 66 -67 118 -89 194 -83 237 20
238 376 1 396 -69 6 -119 -12 -172 -60 l-43 -40 38 -38 37 -38 37 34 c75 67
173 35 173 -56 0 -44 -33 -87 -70 -90 -57 -6 -69 2 -199 130 -75 74 -147 136
-169 145 -47 19 -123 19 -164 -1z m144 -35 c34 -12 224 -199 216 -212 -3 -5
-49 34 -102 86 -100 98 -147 125 -199 113 -26 -6 -26 -6 -8 9 23 18 54 19 93
4z m448 -14 c46 -28 36 -32 -26 -9 -27 9 -57 13 -79 9 -33 -6 -34 -6 -15 9 29
23 75 19 120 -9z m-403 -102 c43 -42 55 -71 25 -60 -7 3 -26 -8 -43 -24 -40
-38 -82 -50 -120 -34 -42 17 -57 40 -57 85 0 45 15 68 57 85 42 18 82 3 138
-52z m2 -154 c-9 -15 -68 -39 -97 -39 -13 0 -32 7 -43 15 -18 14 -17 14 11 9
17 -3 48 2 70 10 49 18 68 20 59 5z m401 -14 c-45 -28 -91 -32 -120 -9 -19 15
-18 15 15 9 21 -4 51 0 75 9 61 22 75 18 30 -9z"/>
<path d="M396 401 c-10 -15 60 -68 119 -90 113 -43 264 -19 344 55 31 28 33
34 19 39 -10 4 -29 -2 -47 -14 -118 -84 -264 -85 -380 -1 -32 22 -47 25 -55
11z"/>
<path d="M212 337 c-35 -36 -40 -46 -29 -55 10 -9 23 -2 56 32 24 24 40 49 37
55 -11 18 -19 13 -64 -32z"/>
</g>
</svg>
