<?xml version="1.0" standalone="no"?>
<!DOCTYPE svg PUBLIC "-//W3C//DTD SVG 20010904//EN"
 "http://www.w3.org/TR/2001/REC-SVG-20010904/DTD/svg10.dtd">
<svg version="1.0" xmlns="http://www.w3.org/2000/svg"
 width="256.000000pt" height="256.000000pt" viewBox="0 0 256.000000 256.000000"
 preserveAspectRatio="xMidYMid meet">

<g transform="translate(0.000000,256.000000) scale(0.100000,-0.100000)"
fill="#000000" stroke="none">
<path d="M880 1667 c-68 -20 -115 -45 -164 -88 -191 -168 -178 -465 27 -619
73 -55 137 -75 242 -75 77 0 99 5 148 28 32 14 76 41 98 58 l39 31 -31 54
c-38 68 -33 70 10 4 40 -62 99 -111 177 -147 50 -24 72 -28 149 -28 105 0 169
20 242 75 216 163 216 477 0 640 -73 55 -137 75 -242 75 -80 0 -97 -4 -155
-32 -36 -17 -80 -44 -99 -60 l-34 -29 19 -30 c11 -16 -5 -4 -38 29 -77 79
-162 118 -266 123 -46 2 -95 -1 -122 -9z m206 -62 c90 -27 137 -74 263 -265
135 -204 157 -224 242 -218 94 7 153 67 153 158 0 91 -59 151 -153 158 -48 3
-62 0 -95 -23 -21 -14 -41 -23 -44 -20 -3 3 -25 38 -48 77 l-43 72 36 24 c80
55 209 68 307 31 69 -25 143 -91 181 -161 28 -49 30 -60 30 -158 0 -98 -2
-109 -30 -158 -38 -71 -112 -136 -183 -162 -46 -18 -73 -21 -137 -18 -156 8
-215 57 -361 296 -83 138 -106 168 -142 189 -36 21 -52 25 -97 21 -207 -17
-208 -319 -1 -336 54 -4 96 10 130 43 14 14 19 8 60 -62 l45 -77 -36 -25 c-80
-54 -209 -67 -307 -30 -69 25 -143 91 -181 161 -28 49 -30 60 -30 158 0 98 2
109 30 158 37 69 112 135 178 161 63 24 164 27 233 6z m254 -135 c6 -11 8 -20
6 -20 -3 0 -10 9 -16 20 -6 11 -8 20 -6 20 3 0 10 -9 16 -20z m-316 -84 c21
-9 44 -32 65 -65 l31 -52 -36 -44 c-46 -57 -94 -74 -147 -52 -40 17 -77 68
-77 107 0 37 36 89 73 105 41 18 50 18 91 1z m606 -11 c32 -17 60 -61 60 -95
0 -51 -57 -110 -105 -110 -35 0 -81 32 -108 75 l-29 45 29 34 c30 37 77 65
106 66 10 0 31 -7 47 -15z m-430 -235 c6 -11 8 -20 6 -20 -3 0 -10 9 -16 20
-6 11 -8 20 -6 20 3 0 10 -9 16 -20z"/>
</g>
</svg>
